<svg width="67" height="33" viewBox="0 0 67 33" fill="none" xmlns="http://www.w3.org/2000/svg">
  <path
    d="M11.652 7.25452V13.3254C10.7947 12.3526 9.66186 11.6642 8.40424 11.3518C7.14663 11.0395 5.82385 11.118 4.61188 11.5769C3.39991 12.0358 2.35621 12.8533 1.61963 13.9207C0.883057 14.9882 0.488525 16.2549 0.488525 17.5523C0.488525 18.8498 0.883057 20.1165 1.61963 21.1839C2.35621 22.2513 3.39991 23.0689 4.61188 23.5278C5.82385 23.9867 7.14663 24.0651 8.40424 23.7528C9.66186 23.4404 10.7947 22.7521 11.652 21.7792V23.9387H13.2646V7.25452H11.652ZM11.652 18.1774C11.4963 19.3928 10.8843 20.5032 9.94027 21.2829C8.99628 22.0626 7.7912 22.453 6.57001 22.3749C5.34881 22.2968 4.20314 21.756 3.3659 20.8624C2.52866 19.9687 2.06267 18.7894 2.06267 17.5641C2.06267 16.3388 2.52866 15.1594 3.3659 14.2658C4.20314 13.3722 5.34881 12.8313 6.57001 12.7532C7.7912 12.6751 8.99628 13.0656 9.94027 13.8453C10.8843 14.625 11.4963 15.7354 11.652 16.9507C11.6789 17.1534 11.692 17.3577 11.6911 17.5621C11.692 17.7679 11.6789 17.9735 11.652 18.1774Z"
    fill="currentColor" />
  <path
    d="M27.9422 18.052C27.9422 17.8874 27.9422 17.7267 27.9422 17.5621C27.9422 14.0348 24.9832 11.1777 21.3432 11.1777C17.7031 11.1777 14.7402 14.0387 14.7402 17.5621C14.7402 21.0855 17.7031 23.9505 21.3432 23.9505C22.6714 23.9653 23.9733 23.5786 25.0786 22.841C26.184 22.1033 27.0415 21.049 27.539 19.8157H25.8325C25.3929 20.6138 24.7464 21.2783 23.9611 21.7391C23.1757 22.1998 22.2808 22.4398 21.3706 22.4337C20.1426 22.4514 18.9516 22.0136 18.0267 21.2046C17.1018 20.3957 16.5083 19.2728 16.3606 18.052H27.9422ZM21.3627 12.6905C22.5369 12.6775 23.6782 13.0788 24.5864 13.8241C25.4946 14.5694 26.1118 15.6111 26.3296 16.7665H16.3919C16.6106 15.6108 17.2286 14.569 18.1374 13.8237C19.0463 13.0785 20.1881 12.6773 21.3627 12.6905Z"
    fill="currentColor" />
  <path
    d="M49.7078 0.870066C49.7137 0.750122 49.695 0.630239 49.6528 0.517832C49.6105 0.405424 49.5458 0.302883 49.4624 0.21655C49.379 0.130216 49.2789 0.0619275 49.1681 0.0159062C49.0573 -0.030115 48.9383 -0.0528897 48.8184 -0.0510093C48.6985 -0.0491289 48.5802 -0.0226334 48.4709 0.0268384C48.3616 0.0763102 48.2637 0.147706 48.183 0.236611C48.1024 0.325516 48.0409 0.430038 48.0022 0.543714C47.9635 0.65739 47.9486 0.777801 47.9582 0.897501C47.9572 0.968999 47.9664 1.04028 47.9856 1.10914C48.0162 1.30907 48.0055 1.51314 47.9543 1.70878C47.9543 1.70878 47.876 1.83028 47.8095 1.92434C46.8388 3.37054 42.4982 9.80593 42.3651 10.0176C40.459 13.0628 38.4511 15.9552 36.8855 18.0755C37.1203 17.2486 37.3826 16.3903 37.6918 15.5006C37.7348 15.3713 37.7544 15.238 37.7857 15.1087C38.1311 13.7165 38.4054 12.3077 38.6076 10.8876C38.7407 9.82161 38.8503 9.07304 38.7564 8.75558C38.7564 8.67327 38.7564 8.638 38.7055 8.64976C38.4433 8.37933 37.4843 9.28076 36.952 10.9425C36.7153 11.4824 36.4434 12.0061 36.1379 12.5102C35.7465 13.3176 35.3238 14.1171 34.8854 14.9362L34.7563 15.1675C33.5892 17.1217 32.2547 18.9707 30.7679 20.6936C30.6466 20.5878 30.897 18.7575 30.9284 18.538V18.5145C31.9969 13.5018 32.4861 9.68444 31.7033 9.83729C31.2297 10.0724 30.7679 10.7426 30.3178 11.405L30.2708 11.4716C28.8892 13.3254 28.9205 15.3242 29.989 14.6697C30.2238 14.5247 30.2591 13.929 30.4313 13.8036C30.4782 13.7722 30.533 13.8036 30.5487 13.9172C30.6854 15.7492 30.6053 17.591 30.3099 19.4042C29.8559 21.6577 29.3549 23.535 28.9831 25.1184C28.6895 26.4118 28.2473 27.4699 28.0202 28.3675C26.9361 32.7766 27.8559 33.2743 28.3451 32.902C28.5447 32.902 28.8774 32.2671 28.9596 31.2207C29.0575 29.9469 29.2845 28.0578 29.5819 26.0159L29.6798 25.4319C29.9172 24.6669 30.2625 23.9397 30.7053 23.2724C32.447 20.576 34.3414 16.6097 35.4021 14.9715C35.6878 14.5247 35.9579 14.0897 36.2162 13.6703C36.2162 13.6703 36.6311 13.3215 36.6937 13.5096C36.7432 14.1414 36.6809 14.7769 36.5097 15.3869C35.3982 20.1998 34.5058 24.7931 35.269 24.7931C35.3238 24.8989 35.6604 24.7343 35.9031 24.1895C35.997 23.9897 36.087 23.7976 36.1731 23.5507C36.1731 23.5507 38.2358 18.6909 38.3571 18.197C38.4198 18.0873 38.4863 17.9776 38.5528 17.8678C38.8307 17.4171 40.9287 12.7023 41.8602 12.3142C42.3964 12.0869 43.5197 8.87315 44.279 7.8032C45.3451 6.23403 46.5058 4.73147 47.7547 3.30391C48.3379 2.66116 48.9289 2.14774 49.3203 1.6304C49.4324 1.55374 49.5256 1.45246 49.5928 1.33429C49.6599 1.21611 49.6993 1.08415 49.7078 0.948451C49.7094 0.934126 49.7094 0.919664 49.7078 0.905339V0.870066Z"
    fill="#D72020" />
  <path
    d="M53.1718 11.1777V13.3529C52.5906 12.6741 51.8703 12.1286 51.0599 11.7532C50.2495 11.3779 49.3679 11.1816 48.475 11.1777C46.8108 11.219 45.2287 11.9099 44.0663 13.1031C42.9038 14.2963 42.2532 15.8972 42.2532 17.5641C42.2532 19.231 42.9038 20.8319 44.0663 22.025C45.2287 23.2182 46.8108 23.9092 48.475 23.9505C49.3679 23.9465 50.2495 23.7502 51.0599 23.3749C51.8703 22.9996 52.5906 22.454 53.1718 21.7753V23.9505H54.7374V11.1777H53.1718ZM48.475 22.3593C47.5235 22.3779 46.5881 22.1125 45.7879 21.5967C44.9877 21.0809 44.3591 20.3381 43.9821 19.4631C43.6052 18.5881 43.497 17.6206 43.6715 16.6838C43.8459 15.747 44.295 14.8835 44.9615 14.2033C45.628 13.5231 46.4817 13.0571 47.4137 12.8647C48.3458 12.6723 49.3139 12.7622 50.1948 13.123C51.0756 13.4837 51.8291 14.099 52.3593 14.8903C52.8896 15.6816 53.1724 16.6131 53.1718 17.566C53.1801 18.8276 52.6882 20.041 51.8039 20.9396C50.9196 21.8383 49.7153 22.3489 48.4554 22.3593H48.475Z"
    fill="currentColor" />
  <path d="M27.8169 25.5299H0V26.3216H27.8169V25.5299Z" fill="currentColor" />
  <path d="M55.935 25.5299H30.3413V26.3216H55.935V25.5299Z" fill="currentColor" />
  <path
    d="M58.6122 25.7847L61.4146 20.6897V20.1096H58.0955V20.6818H60.7492L57.9429 25.7847H57.939V26.3216H61.5399V25.7847H58.6122Z"
    fill="currentColor" />
  <path d="M62.6201 21.5245H62.127V26.3255H62.6201V21.5245Z" fill="currentColor" />
  <path
    d="M66.0331 22.0732V21.5793H65.1172V20.1096H64.6241V21.5793H63.4929C63.3167 21.5871 63.1451 21.6383 62.9935 21.7286C62.8419 21.8189 62.715 21.9453 62.624 22.0967V22.7316C62.8471 22.4964 62.9959 22.1868 63.4968 22.081H64.628V26.3216H65.1212V22.0732H66.0331Z"
    fill="currentColor" />
  <path d="M67 25.1302H66.5068V26.3216H67V25.1302Z" fill="currentColor" />
</svg>