<svg width="286" height="286" viewBox="0 0 286 286" fill="none" xmlns="http://www.w3.org/2000/svg">
<g clip-path="url(#clip0_749_1604)">
<path d="M8.94641 142.991L41.8816 41.877L108.071 108.076C108.071 108.076 93.6091 123.004 93.6091 142.991H8.94641Z" fill="#B7C2E1"/>
<path d="M48.2108 237.789L0 142.99H93.6091C93.6091 142.99 93.9232 163.758 108.076 177.915L48.2108 237.789Z" fill="#CCD4EA"/>
<path d="M143 277.054L41.8864 244.118L108.076 177.929C108.076 177.929 122.985 192.391 143.005 192.391L143 277.054Z" fill="#DEE6F7"/>
<path d="M237.789 237.789L143.005 286V192.391C143.005 192.391 163.772 192.077 177.929 177.92L237.789 237.789Z" fill="#ECF2FF"/>
<path d="M277.054 142.99L244.118 244.114L177.929 177.92C177.929 177.92 192.391 163.015 192.391 142.995L277.054 142.99Z" fill="#293551"/>
<path d="M237.789 48.2107L286 142.99H192.391C192.391 142.99 192.077 122.223 177.924 108.066L237.789 48.2107Z" fill="#17358C"/>
<path d="M143 8.94629L244.114 41.8815L177.924 108.071C177.924 108.071 163.015 93.6042 142.995 93.6042L143 8.94629Z" fill="#204CCA"/>
<path d="M48.2107 48.2108L142.995 0V93.6043C142.995 93.6043 122.228 93.9184 108.071 108.076L48.2107 48.2108Z" fill="#6F85C3"/>
</g>
<circle cx="143" cy="143" r="60" fill="white"/>
<g clip-path="url(#clip1_749_1604)">
<path d="M110.744 118.953C109.954 118.952 109.183 118.72 108.527 118.284C107.871 117.849 107.36 117.23 107.058 116.506C106.756 115.782 106.678 114.986 106.832 114.218C106.986 113.45 107.366 112.744 107.925 112.19C108.483 111.637 109.194 111.26 109.968 111.107C110.743 110.955 111.545 111.033 112.274 111.333C113.003 111.633 113.627 112.141 114.065 112.792C114.503 113.443 114.737 114.209 114.737 114.992C114.736 116.043 114.315 117.05 113.566 117.792C112.817 118.535 111.802 118.952 110.744 118.953ZM110.744 112.596C110.266 112.596 109.799 112.737 109.403 113.001C109.006 113.265 108.697 113.639 108.514 114.077C108.332 114.515 108.285 114.996 108.378 115.461C108.472 115.926 108.702 116.353 109.04 116.687C109.377 117.022 109.808 117.25 110.276 117.343C110.744 117.435 111.23 117.387 111.671 117.206C112.112 117.024 112.489 116.717 112.754 116.323C113.019 115.929 113.161 115.466 113.161 114.992C113.16 114.356 112.905 113.747 112.452 113.297C111.999 112.848 111.384 112.596 110.744 112.596Z" fill="black"/>
<path d="M123.648 118.953C122.858 118.953 122.087 118.721 121.43 118.285C120.774 117.85 120.262 117.232 119.96 116.508C119.658 115.784 119.579 114.988 119.733 114.219C119.887 113.451 120.267 112.745 120.825 112.191C121.384 111.637 122.095 111.26 122.869 111.107C123.643 110.955 124.446 111.033 125.175 111.333C125.904 111.633 126.528 112.14 126.966 112.792C127.405 113.443 127.639 114.209 127.639 114.992C127.638 116.042 127.218 117.049 126.469 117.792C125.721 118.535 124.706 118.952 123.648 118.953ZM123.648 112.596C123.17 112.596 122.703 112.736 122.306 113C121.909 113.263 121.6 113.637 121.417 114.075C121.234 114.513 121.186 114.995 121.279 115.46C121.373 115.924 121.602 116.351 121.94 116.687C122.278 117.022 122.708 117.25 123.177 117.342C123.645 117.435 124.131 117.387 124.572 117.206C125.013 117.025 125.39 116.717 125.656 116.323C125.921 115.929 126.062 115.466 126.062 114.992C126.062 114.357 125.807 113.748 125.354 113.298C124.902 112.849 124.288 112.596 123.648 112.596Z" fill="black"/>
<path d="M136.549 118.953C135.76 118.953 134.988 118.721 134.332 118.285C133.675 117.85 133.164 117.232 132.862 116.508C132.56 115.784 132.481 114.988 132.635 114.219C132.789 113.451 133.169 112.745 133.727 112.191C134.285 111.637 134.996 111.26 135.771 111.107C136.545 110.955 137.347 111.033 138.077 111.333C138.806 111.633 139.429 112.14 139.868 112.792C140.307 113.443 140.541 114.209 140.541 114.992C140.54 116.042 140.119 117.049 139.371 117.792C138.622 118.535 137.608 118.952 136.549 118.953ZM136.549 112.596C136.072 112.596 135.605 112.736 135.208 113C134.811 113.263 134.501 113.637 134.318 114.075C134.136 114.513 134.088 114.995 134.181 115.46C134.274 115.924 134.504 116.351 134.842 116.687C135.179 117.022 135.61 117.25 136.078 117.342C136.547 117.435 137.032 117.387 137.473 117.206C137.915 117.025 138.292 116.717 138.557 116.323C138.822 115.929 138.964 115.466 138.964 114.992C138.963 114.357 138.709 113.748 138.256 113.298C137.803 112.849 137.189 112.596 136.549 112.596Z" fill="black"/>
<path d="M149.451 118.953C148.662 118.952 147.89 118.72 147.234 118.284C146.578 117.849 146.067 117.23 145.765 116.506C145.463 115.782 145.385 114.986 145.539 114.218C145.693 113.45 146.074 112.744 146.632 112.19C147.19 111.637 147.902 111.26 148.676 111.107C149.45 110.955 150.252 111.033 150.981 111.333C151.711 111.633 152.334 112.141 152.772 112.792C153.211 113.443 153.445 114.209 153.445 114.992C153.443 116.043 153.022 117.05 152.273 117.792C151.524 118.535 150.509 118.952 149.451 118.953ZM149.451 112.596C148.973 112.596 148.507 112.737 148.11 113.001C147.713 113.265 147.404 113.639 147.222 114.077C147.039 114.515 146.992 114.996 147.085 115.461C147.179 115.926 147.409 116.353 147.747 116.687C148.085 117.022 148.515 117.25 148.983 117.343C149.452 117.435 149.937 117.387 150.378 117.206C150.819 117.024 151.196 116.717 151.461 116.323C151.727 115.929 151.868 115.466 151.868 114.992C151.868 114.356 151.613 113.747 151.159 113.297C150.706 112.848 150.091 112.596 149.451 112.596Z" fill="black"/>
<path d="M162.355 118.953C161.566 118.953 160.794 118.721 160.138 118.285C159.481 117.85 158.97 117.232 158.667 116.508C158.365 115.784 158.286 114.988 158.44 114.219C158.594 113.451 158.974 112.745 159.533 112.191C160.091 111.637 160.802 111.26 161.576 111.107C162.351 110.955 163.153 111.033 163.882 111.333C164.612 111.633 165.235 112.14 165.674 112.792C166.112 113.443 166.346 114.209 166.346 114.992C166.346 116.042 165.925 117.049 165.177 117.792C164.428 118.535 163.413 118.952 162.355 118.953ZM162.355 112.596C161.877 112.596 161.411 112.736 161.013 113C160.616 113.263 160.307 113.637 160.124 114.075C159.941 114.513 159.893 114.995 159.987 115.46C160.08 115.924 160.31 116.351 160.647 116.687C160.985 117.022 161.415 117.25 161.884 117.342C162.352 117.435 162.838 117.387 163.279 117.206C163.72 117.025 164.097 116.717 164.363 116.323C164.628 115.929 164.77 115.466 164.77 114.992C164.769 114.357 164.514 113.748 164.062 113.298C163.609 112.849 162.995 112.596 162.355 112.596Z" fill="black"/>
<path d="M175.257 118.953C174.467 118.953 173.695 118.721 173.039 118.285C172.383 117.85 171.871 117.232 171.569 116.508C171.267 115.784 171.188 114.988 171.342 114.219C171.496 113.451 171.876 112.745 172.434 112.191C172.992 111.637 173.704 111.26 174.478 111.107C175.252 110.955 176.055 111.033 176.784 111.333C177.513 111.633 178.137 112.14 178.575 112.792C179.014 113.443 179.248 114.209 179.248 114.992C179.247 116.042 178.826 117.049 178.078 117.792C177.33 118.535 176.315 118.952 175.257 118.953ZM175.257 112.596C174.779 112.596 174.312 112.736 173.915 113C173.518 113.263 173.208 113.637 173.026 114.075C172.843 114.513 172.795 114.995 172.888 115.46C172.981 115.924 173.211 116.351 173.549 116.687C173.887 117.022 174.317 117.25 174.785 117.342C175.254 117.435 175.739 117.387 176.181 117.206C176.622 117.025 176.999 116.717 177.264 116.323C177.53 115.929 177.671 115.466 177.671 114.992C177.671 114.357 177.416 113.748 176.963 113.298C176.511 112.849 175.897 112.596 175.257 112.596Z" fill="black"/>
<path d="M179.934 124.984H106.069C103.399 124.984 100.837 123.931 98.9491 122.057C97.0608 120.184 96 117.642 96 114.992C96 112.342 97.0608 109.8 98.9491 107.927C100.837 106.053 103.399 105 106.069 105H179.934C182.604 105 185.165 106.053 187.053 107.927C188.942 109.8 190.003 112.342 190.003 114.992C190.003 117.642 188.942 120.184 187.053 122.057C185.165 123.931 182.604 124.984 179.934 124.984ZM106.069 107.608C104.095 107.608 102.203 108.386 100.807 109.77C99.4116 111.155 98.6276 113.034 98.6276 114.992C98.6276 116.95 99.4116 118.829 100.807 120.214C102.203 121.598 104.095 122.376 106.069 122.376H179.934C181.907 122.376 183.8 121.598 185.195 120.214C186.591 118.829 187.375 116.95 187.375 114.992C187.375 113.034 186.591 111.155 185.195 109.77C183.8 108.386 181.907 107.608 179.934 107.608H106.069Z" fill="black"/>
<path d="M124.943 127.537H122.315V130.702H124.943V127.537Z" fill="black"/>
<path d="M125.074 128.841H122.184C121.372 128.839 120.594 128.518 120.02 127.948C119.446 127.378 119.124 126.606 119.123 125.8V122.376H128.141V125.8C128.14 126.607 127.817 127.38 127.242 127.95C126.667 128.52 125.887 128.841 125.074 128.841ZM121.751 124.984V125.8C121.751 125.915 121.796 126.025 121.878 126.106C121.96 126.187 122.071 126.233 122.187 126.233H125.077C125.193 126.233 125.304 126.187 125.386 126.106C125.467 126.025 125.513 125.915 125.513 125.8V124.984H121.751Z" fill="black"/>
<path d="M123.629 135.743C122.997 135.743 122.378 135.558 121.852 135.209C121.326 134.861 120.916 134.365 120.673 133.786C120.431 133.206 120.367 132.568 120.49 131.952C120.613 131.336 120.917 130.77 121.365 130.326C121.812 129.882 122.381 129.58 123.002 129.457C123.622 129.335 124.265 129.397 124.85 129.637C125.434 129.877 125.934 130.284 126.285 130.806C126.637 131.328 126.824 131.942 126.824 132.569C126.824 133.41 126.487 134.217 125.888 134.812C125.289 135.406 124.477 135.741 123.629 135.743ZM123.629 132.006C123.516 132.006 123.406 132.038 123.312 132.1C123.217 132.162 123.144 132.251 123.1 132.354C123.057 132.458 123.045 132.572 123.067 132.682C123.089 132.792 123.144 132.893 123.224 132.972C123.303 133.051 123.405 133.105 123.516 133.127C123.627 133.149 123.742 133.137 123.846 133.094C123.95 133.051 124.039 132.978 124.102 132.885C124.164 132.791 124.197 132.681 124.197 132.569C124.197 132.495 124.182 132.422 124.154 132.354C124.125 132.285 124.083 132.223 124.031 132.171C123.978 132.119 123.915 132.077 123.847 132.049C123.778 132.021 123.704 132.006 123.629 132.006Z" fill="black"/>
<path d="M117.292 141.889L115.917 139.675V134.968L121.496 132.361L122.615 134.721L118.545 136.624V138.937L119.528 140.522L117.292 141.889Z" fill="black"/>
<path d="M129.731 141.972L127.607 140.439L128.748 138.882V136.624L124.678 134.721L125.797 132.361L131.375 134.968V139.732L129.731 141.972Z" fill="black"/>
<path d="M150.042 157.064L134.127 141.273C133.782 140.93 133.373 140.658 132.922 140.473C132.471 140.288 131.987 140.194 131.499 140.196H112.701C111.72 140.198 110.779 140.585 110.085 141.274C109.391 141.963 109 142.896 108.999 143.87V178.326C109 179.3 109.391 180.234 110.085 180.922C110.779 181.611 111.72 181.999 112.701 182H132.524C132.753 182 132.978 181.936 133.173 181.817C133.367 181.697 133.525 181.526 133.627 181.322C135.025 178.571 137.16 176.256 139.799 174.632C142.437 173.008 145.476 172.139 148.581 172.12H149.895C150.057 172.12 150.217 172.088 150.367 172.027C150.517 171.965 150.653 171.875 150.767 171.761C150.882 171.647 150.972 171.512 151.034 171.363C151.096 171.215 151.128 171.055 151.127 170.895V159.664C151.129 159.181 151.033 158.703 150.847 158.256C150.661 157.81 150.387 157.405 150.042 157.064ZM148.657 169.666H148.589C145.156 169.681 141.789 170.604 138.835 172.34C135.881 174.076 133.448 176.563 131.785 179.544H112.701C112.374 179.544 112.061 179.415 111.83 179.186C111.599 178.956 111.469 178.645 111.469 178.321V143.87C111.469 143.546 111.598 143.234 111.83 143.005C112.061 142.775 112.374 142.645 112.701 142.645H131.509C131.672 142.645 131.832 142.676 131.982 142.738C132.132 142.8 132.268 142.89 132.382 143.005L148.289 158.796C148.405 158.909 148.496 159.045 148.558 159.194C148.621 159.343 148.653 159.503 148.652 159.664L148.657 169.666Z" fill="black"/>
<path d="M145.749 159.815L131.36 145.456C131.245 145.341 131.109 145.25 130.959 145.188C130.808 145.127 130.647 145.095 130.485 145.096H115.182C115.02 145.095 114.859 145.127 114.709 145.188C114.559 145.249 114.423 145.339 114.308 145.453C114.194 145.567 114.103 145.701 114.041 145.85C113.979 145.999 113.947 146.158 113.947 146.319V161.098C113.947 161.423 114.077 161.735 114.308 161.965C114.54 162.194 114.854 162.324 115.182 162.324H144.874C145.201 162.323 145.514 162.193 145.745 161.964C145.976 161.734 146.106 161.423 146.106 161.098V160.678C146.106 160.355 145.977 160.045 145.749 159.815ZM116.406 159.873V147.544H129.972L142.322 159.873H116.406Z" fill="black"/>
<path d="M122.576 167.221H115.182C114.854 167.221 114.54 167.35 114.308 167.58C114.077 167.81 113.947 168.121 113.947 168.446V169.667C113.947 170.966 114.467 172.212 115.393 173.131C116.319 174.05 117.574 174.566 118.884 174.566C120.193 174.566 121.449 174.05 122.375 173.131C123.301 172.212 123.821 170.966 123.821 169.667V168.441C123.82 168.28 123.787 168.12 123.724 167.972C123.661 167.823 123.569 167.688 123.453 167.575C123.337 167.462 123.2 167.372 123.05 167.311C122.899 167.25 122.738 167.22 122.576 167.221ZM118.873 172.12C118.219 172.118 117.592 171.858 117.13 171.398C116.668 170.939 116.407 170.316 116.406 169.667H121.341C121.339 170.316 121.079 170.939 120.617 171.398C120.155 171.858 119.528 172.118 118.873 172.12Z" fill="black"/>
<path d="M179.889 128.968H176.999C176.186 128.968 175.407 128.647 174.833 128.077C174.259 127.507 173.936 126.734 173.935 125.928V122.504H182.95V125.928C182.949 126.734 182.627 127.506 182.053 128.076C181.479 128.646 180.701 128.967 179.889 128.968ZM176.562 125.112V125.928C176.562 125.985 176.573 126.041 176.595 126.094C176.616 126.146 176.648 126.194 176.688 126.234C176.729 126.274 176.777 126.306 176.829 126.328C176.882 126.35 176.939 126.361 176.996 126.361H179.886C179.944 126.361 180 126.35 180.053 126.328C180.106 126.306 180.154 126.274 180.194 126.234C180.234 126.194 180.266 126.146 180.288 126.094C180.309 126.041 180.32 125.985 180.32 125.928V125.112H176.562Z" fill="black"/>
<path d="M178.46 140.723C177.827 140.723 177.21 140.536 176.684 140.187C176.159 139.839 175.749 139.343 175.508 138.764C175.266 138.184 175.202 137.546 175.326 136.931C175.449 136.316 175.753 135.751 176.2 135.307C176.647 134.863 177.216 134.561 177.836 134.438C178.456 134.315 179.099 134.377 179.683 134.617C180.267 134.856 180.767 135.262 181.119 135.783C181.471 136.304 181.659 136.917 181.66 137.545C181.66 137.962 181.578 138.375 181.417 138.761C181.256 139.146 181.021 139.497 180.723 139.792C180.426 140.087 180.073 140.321 179.685 140.481C179.296 140.641 178.88 140.723 178.46 140.723ZM178.46 135.422C178.035 135.422 177.62 135.547 177.267 135.781C176.913 136.015 176.638 136.348 176.476 136.738C176.314 137.127 176.271 137.556 176.354 137.969C176.437 138.382 176.642 138.762 176.942 139.06C177.243 139.358 177.626 139.56 178.042 139.642C178.459 139.724 178.891 139.681 179.283 139.52C179.675 139.358 180.01 139.085 180.246 138.734C180.481 138.383 180.607 137.971 180.606 137.55C180.606 136.985 180.38 136.442 179.978 136.043C179.575 135.643 179.029 135.418 178.46 135.417V135.422Z" fill="black"/>
<path d="M121.856 139.448H120.805C120.805 138.883 120.578 138.341 120.176 137.942C119.773 137.542 119.227 137.318 118.658 137.318V136.275C119.506 136.275 120.319 136.61 120.918 137.205C121.518 137.8 121.855 138.607 121.856 139.448Z" fill="black"/>
<path d="M165.668 132.223C165.639 132.254 165.601 132.276 165.559 132.286C165.517 132.296 165.473 132.294 165.432 132.28C165.316 132.266 165.199 132.281 165.09 132.324C164.982 132.367 164.886 132.436 164.812 132.525C164.763 132.628 164.742 132.741 164.749 132.855C164.756 132.968 164.791 133.078 164.851 133.174C164.987 133.255 165.136 133.31 165.293 133.336C166.767 133.631 170.022 134.95 171.528 135.868C171.825 136.05 172.269 136.348 172.511 136.535C172.675 136.676 172.862 136.789 173.062 136.872C173.512 136.872 173.672 136.089 173.286 135.8C173.245 135.769 173.211 135.73 173.186 135.685C173.162 135.64 173.147 135.59 173.144 135.539C173.144 135.346 172.952 135.164 172.216 134.642C170.916 133.768 169.501 133.073 168.012 132.577C166.853 132.176 165.834 132.027 165.668 132.223Z" fill="black"/>
<path d="M164.638 133.803C164.552 134.003 163.487 136.301 162.273 138.921C160.363 143.046 160.077 143.703 160.106 143.875C160.135 144.048 160.939 145.417 161.525 146.29C161.649 146.471 161.763 146.66 161.864 146.856C161.917 146.935 161.95 147.025 161.961 147.119C161.972 147.214 161.96 147.309 161.927 147.398C161.899 147.536 161.837 147.665 161.748 147.774C161.611 147.888 161.554 148.134 161.651 148.22C162.289 148.554 162.95 148.843 163.629 149.085C163.779 149.085 163.892 148.939 163.892 148.728C163.929 148.57 164.015 148.427 164.139 148.321L164.381 148.061L166.02 147.8C166.924 147.651 167.739 147.508 167.839 147.482C168.165 147.377 168.033 147.651 171.381 140.295L172.876 137.015L172.679 136.856C171.864 136.281 171.003 135.773 170.104 135.338C168.727 134.63 167.276 134.075 165.776 133.683C164.696 133.422 164.828 133.391 164.638 133.803ZM165.258 133.803L165.437 133.865L165.329 134.048C165.132 134.361 163.724 136.976 163.07 138.22C162.723 138.887 162.423 139.435 162.413 139.435C162.402 139.435 162.413 139.391 162.442 139.333C162.471 139.276 163.041 138.029 163.713 136.582C164.948 133.889 165.027 133.73 165.059 133.73C165.09 133.73 165.156 133.763 165.258 133.797V133.803Z" fill="black"/>
<path d="M161.527 149.028C161.333 149.427 161.264 149.654 161.264 149.74C161.241 149.981 161.162 150.214 161.033 150.42C160.77 150.942 160.77 150.968 160.573 150.968C160.52 150.979 160.463 150.971 160.415 150.945C160.367 150.919 160.33 150.876 160.311 150.824C160.253 150.699 160.208 150.681 159.924 150.681C159.754 150.681 159.609 150.699 159.609 150.723C159.648 150.887 159.696 151.049 159.754 151.208C159.942 151.812 160.018 152.446 159.977 153.077C159.913 153.608 159.799 154.132 159.638 154.642C159.604 154.733 159.638 154.744 159.901 154.744C160.163 154.744 160.206 154.72 160.321 154.571L160.447 154.402H161.761L161.743 156.582C161.727 158.595 161.719 158.783 161.617 158.983C161.534 159.127 161.421 159.251 161.285 159.345C161.148 159.44 160.992 159.503 160.828 159.531C160.639 159.56 160.581 159.594 160.566 159.685C160.544 159.844 160.647 159.878 161.194 159.919C161.403 159.948 161.615 159.929 161.816 159.863C162.016 159.798 162.199 159.688 162.35 159.541C162.757 159.189 162.786 159.056 162.854 157.369C162.891 156.535 162.93 155.766 162.946 155.656C163.017 155.252 163.361 155.103 163.459 155.44C163.55 155.732 163.776 155.857 164.247 155.862C164.809 155.862 164.793 155.862 164.867 156.039C164.954 156.256 165.626 159.239 165.632 159.429C165.645 159.708 165.471 159.8 164.465 160.073C163.109 160.438 162.975 160.485 162.975 160.616C162.975 160.793 163.206 160.84 164.068 160.84C164.775 160.84 164.872 160.84 164.919 160.942C164.967 161.043 165.109 161.62 165.277 162.334L165.582 163.638H165.815H166.052L165.839 163.661C165.666 163.68 165.621 163.713 165.621 163.799C165.621 163.886 165.66 163.906 165.844 163.906C165.971 163.906 166.091 163.93 166.107 163.964C166.123 163.998 166.049 164.021 165.905 164.021C165.71 164.021 165.671 164.039 165.687 164.118C165.702 164.196 165.779 164.232 165.963 164.256L166.225 164.29H165.984C165.776 164.29 165.752 164.318 165.776 164.415C165.8 164.511 165.858 164.53 166.039 164.53C166.16 164.53 166.275 164.553 166.302 164.587C166.328 164.621 166.246 164.644 166.107 164.644C165.918 164.644 165.871 164.665 165.871 164.746C165.871 164.934 165.999 164.986 166.446 164.986C166.693 164.986 167.085 165.004 167.326 165.02C167.747 165.059 167.763 165.067 167.797 165.221C167.805 165.294 167.837 165.363 167.89 165.416C167.943 165.468 168.012 165.502 168.086 165.51C168.178 165.528 168.193 165.567 168.183 165.716C168.183 165.82 168.183 165.899 168.222 165.899C168.262 165.899 168.285 165.951 168.285 166.018C168.285 166.279 168.385 166.355 168.735 166.355C169.038 166.36 169.334 166.263 169.576 166.081C169.593 165.956 169.593 165.83 169.576 165.706C169.547 165.466 169.513 165.38 169.426 165.351C169.339 165.322 169.329 165.312 169.465 165.202C169.662 165.054 169.649 164.884 169.413 164.039C169.108 162.973 167.999 158.339 167.925 157.846C167.852 157.354 167.907 157.064 168.115 156.803C168.322 156.543 168.885 156.313 169.428 156.251C170.183 156.154 170.177 156.159 170.177 155.964C170.177 155.81 170.159 155.794 169.98 155.794C169.738 155.794 169.589 155.742 169.636 155.674C169.66 155.655 169.688 155.64 169.717 155.631C169.747 155.622 169.778 155.619 169.809 155.622C169.883 155.622 169.946 155.594 169.946 155.565C169.946 155.536 169.985 155.508 170.033 155.508C170.08 155.508 170.119 155.536 170.119 155.57C170.119 155.604 170.227 155.622 170.395 155.612L170.658 155.594L170.674 154.863L170.692 154.139L170.543 154.081C170.319 153.995 170.112 154.013 170.112 154.11C170.112 154.157 170.088 154.196 170.059 154.196C170.03 154.196 169.996 154.157 169.972 154.11C169.949 154.063 169.731 154.024 168.535 154.024H167.127L167.108 153.836C167.092 153.677 167.069 153.648 166.89 153.625C166.759 153.609 166.683 153.562 166.672 153.495C166.662 153.427 166.672 153.398 166.711 153.398C166.72 153.397 166.728 153.398 166.736 153.4C166.744 153.402 166.751 153.406 166.758 153.412C166.764 153.417 166.769 153.424 166.772 153.432C166.776 153.439 166.777 153.447 166.777 153.455C166.777 153.489 166.932 153.51 167.121 153.51H167.466V153.312C167.466 153.051 167.621 153.033 167.65 153.294L167.668 153.482L168.22 153.5C168.645 153.5 168.787 153.5 168.84 153.432C168.892 153.364 168.903 153.124 168.892 152.621L168.874 151.886H168.243C167.634 151.886 167.61 151.886 167.592 152.011C167.563 152.193 167.476 152.175 167.455 151.982C167.437 151.844 167.413 151.828 167.192 151.81C167.056 151.8 166.918 151.819 166.79 151.867C166.68 151.925 166.646 151.925 166.627 151.867C166.609 151.81 166.365 151.8 165.713 151.8C164.73 151.8 164.507 151.748 164.334 151.479C164.1 151.127 164.289 150.373 164.672 150.144C164.763 150.069 164.875 150.022 164.992 150.01C165.11 149.999 165.229 150.023 165.333 150.079C165.436 150.136 165.521 150.222 165.574 150.326C165.628 150.431 165.649 150.549 165.634 150.665C165.634 151.007 165.881 151.098 166.094 150.83C166.144 150.773 166.179 150.704 166.196 150.63C166.213 150.557 166.211 150.48 166.191 150.407C166.128 149.917 165.973 149.706 165.474 149.456C165.232 149.336 164.806 149.153 164.523 149.049L164.023 148.861L163.892 148.976C163.824 149.042 163.741 149.091 163.65 149.119C163.569 149.119 163.443 149.312 163.23 149.745C163.017 150.178 162.873 150.371 162.82 150.371C162.767 150.371 162.794 150.261 162.912 150.04C163.004 149.878 163.138 149.599 163.217 149.422L163.356 149.109L162.66 148.806L161.89 148.48C161.843 148.457 161.706 148.668 161.527 149.028ZM162.741 156.149C162.723 157.453 162.626 158.79 162.528 158.989C162.416 159.211 162.237 159.393 162.016 159.51C161.861 159.601 161.866 159.591 162.069 159.39C162.465 158.996 162.471 158.976 162.489 156.936C162.489 155.933 162.505 155.111 162.505 155.088C162.552 155.127 162.593 155.173 162.626 155.226C162.741 155.362 162.741 155.429 162.741 156.149Z" fill="black"/>
<path d="M158.619 150.835C158.577 150.891 158.54 150.951 158.508 151.012C158.508 151.012 158.227 151.075 157.899 151.137C157.055 151.299 157.06 151.291 157.026 151.435C156.95 151.695 157.026 151.81 157.347 151.881C157.515 151.914 157.738 151.967 157.849 151.995L158.054 152.05V152.691C158.04 152.926 158.051 153.161 158.088 153.393C158.122 153.432 157.967 153.489 157.623 153.557C157.173 153.648 157.097 153.677 157.076 153.792C156.989 154.139 157.163 154.243 158.019 154.345C158.519 154.407 158.566 154.425 158.64 154.574C158.713 154.723 158.755 154.733 159.007 154.733H159.289L159.409 154.339C159.602 153.739 159.677 153.108 159.63 152.48C159.649 152.043 159.582 151.607 159.433 151.195L159.268 150.71L159.005 150.694C158.745 150.676 158.705 150.694 158.619 150.835Z" fill="black"/>
<path d="M179.589 135.336H177.296C177.012 135.335 176.74 135.223 176.54 135.024C176.34 134.825 176.227 134.556 176.226 134.275V128.207C176.227 127.926 176.34 127.656 176.54 127.457C176.74 127.258 177.012 127.146 177.296 127.146H179.589C179.873 127.146 180.144 127.258 180.345 127.457C180.545 127.656 180.658 127.926 180.659 128.207V134.277C180.657 134.558 180.544 134.827 180.344 135.025C180.144 135.224 179.872 135.335 179.589 135.336ZM177.296 128.186C177.291 128.186 177.286 128.188 177.283 128.191C177.279 128.195 177.277 128.2 177.277 128.204V134.275C177.277 134.28 177.279 134.284 177.283 134.288C177.286 134.291 177.291 134.293 177.296 134.293H179.589C179.594 134.293 179.599 134.291 179.602 134.288C179.606 134.284 179.608 134.28 179.608 134.275V128.207C179.608 128.202 179.606 128.198 179.602 128.194C179.599 128.191 179.594 128.189 179.589 128.189L177.296 128.186Z" fill="black"/>
<path d="M175.22 152.553C175.111 152.553 175.003 152.537 174.899 152.506L172.71 151.826C172.44 151.741 172.214 151.554 172.083 151.305C171.951 151.055 171.925 150.765 172.009 150.496L175.335 139.941C175.421 139.672 175.61 139.447 175.861 139.316C176.113 139.185 176.407 139.159 176.678 139.242L178.867 139.923C179.133 140.009 179.355 140.196 179.484 140.444C179.614 140.691 179.64 140.978 179.558 141.245L176.231 151.797C176.164 152.014 176.028 152.203 175.844 152.337C175.66 152.471 175.438 152.544 175.209 152.543L175.22 152.553ZM176.357 140.241C176.355 140.239 176.351 140.239 176.348 140.239C176.345 140.239 176.342 140.239 176.339 140.241L173.013 150.793C173.012 150.796 173.011 150.798 173.012 150.801C173.012 150.803 173.013 150.806 173.014 150.808C173.015 150.81 173.017 150.812 173.019 150.814C173.021 150.815 173.023 150.816 173.026 150.817L175.212 151.497C175.217 151.498 175.222 151.498 175.227 151.495C175.232 151.493 175.236 151.489 175.238 151.484L178.565 140.932C178.565 140.929 178.566 140.927 178.565 140.924C178.565 140.922 178.564 140.919 178.563 140.917C178.562 140.915 178.56 140.913 178.558 140.911C178.556 140.91 178.554 140.909 178.552 140.908L176.363 140.228L176.357 140.241Z" fill="black"/>
<path d="M172.545 155.492H170.393C170.253 155.492 170.12 155.437 170.021 155.339C169.923 155.241 169.867 155.109 169.867 154.97C169.867 154.832 169.923 154.699 170.021 154.602C170.12 154.504 170.253 154.449 170.393 154.449H172.201C172.298 154.448 172.394 154.418 172.473 154.361C172.553 154.305 172.613 154.225 172.645 154.133L173.528 151.526L174.523 151.86L173.533 154.783C173.463 154.988 173.33 155.167 173.153 155.294C172.976 155.421 172.763 155.49 172.545 155.492Z" fill="black"/>
</g>
<defs>
<clipPath id="clip0_749_1604">
<rect width="286" height="286" fill="white"/>
</clipPath>
<clipPath id="clip1_749_1604">
<rect width="94" height="77" fill="white" transform="translate(96 105)"/>
</clipPath>
</defs>
</svg>
