<svg width="45" height="65" viewBox="0 0 45 65" fill="none" xmlns="http://www.w3.org/2000/svg">
  <g clip-path="url(#clip0_2320_1919)">
    <path
      d="M21.3322 0.270487C21.4723 0.389455 21.6747 0.421901 21.9706 0.37864C22.5 0.292117 23.4342 0.5625 23.6522 0.843699C23.9169 1.18979 23.8547 1.89278 23.5432 2.07664C23.4031 2.17398 22.8581 2.30376 22.3443 2.37947C18.3581 2.94187 9.57611 5.4402 5.46538 7.18147C4.65569 7.52756 3.45673 8.08995 2.80275 8.44686C2.14877 8.79295 1.47922 9.08496 1.30794 9.08496C0.0934067 9.08496 -0.342581 7.6249 0.700672 7.05169C0.949808 6.91109 1.08995 6.72723 1.08995 6.54337C1.08995 6.17565 1.60379 5.82956 3.59687 4.84536C6.53977 3.3853 10.8529 1.9036 14.9792 0.930222C18.1246 0.183965 20.8806 -0.0972335 21.3322 0.270487Z"
      fill="#currentColor" />
    <path
      d="M24.1194 3.2661C24.3529 3.64464 27.2336 8.00321 30.519 12.9674C35.6886 20.7869 36.4671 22.0307 36.3893 22.3551C36.3114 22.6796 34.1315 25.2753 32.5432 26.93C32.2163 27.2545 31.8114 27.7411 31.6246 28.0007C31.3131 28.4225 31.2976 28.5198 31.4533 29.0282C31.5623 29.331 31.7803 29.6554 31.936 29.742C32.3097 29.9583 32.4654 30.4233 32.2007 30.5856C31.7958 30.8127 27.1868 32.2295 26.8443 32.2295C26.4394 32.2295 26.1592 31.9483 26.1592 31.5481C26.1592 31.3751 25.91 31.0831 25.4896 30.7802L24.8356 30.2827L20.3979 29.796C17.9533 29.5149 15.7422 29.2445 15.4775 29.1904C14.59 28.9957 14.9481 29.5149 5.8858 15.5739L1.83736 9.35512L2.36677 9.05229C3.33217 8.47908 6.61764 7.12717 9.34255 6.17542C13.4689 4.72617 17.1592 3.74198 21.0363 3.03898C23.9637 2.51985 23.6055 2.4874 24.1194 3.2661ZM22.4377 3.25529L21.955 3.37426L22.2509 3.72035C22.7803 4.31519 26.5952 9.2686 28.3702 11.648C29.3045 12.9134 30.1142 13.9516 30.1453 13.9516C30.192 13.9516 30.1609 13.8651 30.0675 13.7569C29.9896 13.6596 28.4481 11.3127 26.6263 8.54397C23.2785 3.43915 23.0761 3.13632 22.9827 3.13632C22.9516 3.13632 22.718 3.19039 22.4377 3.25529Z"
      fill="#B7C2E1" />
    <path
      d="M32.5433 32.1215C33.0727 32.8785 33.2907 33.3112 33.2284 33.4734C33.1661 33.6464 33.3841 34.0682 33.8512 34.7604C34.5519 35.7662 34.5831 35.7987 35.0969 35.7987C35.4862 35.7987 35.6419 35.7338 35.782 35.5283C35.9377 35.2904 36.0623 35.2579 36.8253 35.2579C37.2924 35.2579 37.6817 35.2903 37.6817 35.3336C37.6817 35.3877 37.5104 35.7987 37.2924 36.2529C36.7941 37.3344 36.545 38.7837 36.6851 39.8003C36.7786 40.525 37.308 42.2446 37.6038 42.7421C37.6973 42.9151 37.6194 42.9368 36.9187 42.9368C36.2336 42.9368 36.0934 42.8935 35.782 42.6123L35.4395 42.2879L33.68 42.2879L31.9049 42.2879L31.9516 46.4193C31.9983 50.2371 32.0139 50.594 32.2941 50.9725C32.6523 51.4809 33.6021 51.9351 34.4585 52.0108C34.9723 52.0649 35.1281 52.1298 35.1592 52.3028C35.2215 52.6057 34.9412 52.6705 33.462 52.7463C32.1229 52.8111 31.3132 52.6273 30.3322 52.0324C29.2267 51.3619 29.1488 51.1131 28.962 47.9118C28.8685 46.3328 28.7595 44.8727 28.7128 44.6672C28.526 43.8993 27.5917 43.6181 27.327 44.2562C27.0779 44.8078 26.4706 45.0458 25.2094 45.0566C23.6834 45.0782 23.7301 45.0674 23.5277 45.3918C23.2941 45.8028 21.4723 51.4592 21.4568 51.8378C21.4256 52.3677 21.8928 52.5408 24.6177 53.0599C28.2924 53.7521 28.6505 53.8386 28.6505 54.0874C28.6505 54.4226 28.0277 54.5092 25.6921 54.5092C23.7768 54.5092 23.5121 54.5308 23.3876 54.7038C23.3097 54.8012 22.8737 55.9909 22.4222 57.3428L21.5969 59.8087L20.9585 59.8303L20.3201 59.8411L20.8962 59.8844C21.3633 59.9168 21.4879 59.9817 21.4879 60.1439C21.4879 60.317 21.3789 60.3494 20.8806 60.3494C20.5381 60.3494 20.2111 60.3927 20.1644 60.4576C20.1021 60.5225 20.3201 60.5657 20.7094 60.5657C21.2388 60.5657 21.3478 60.5982 21.3011 60.7496C21.2699 60.8902 21.0519 60.9659 20.5537 61.0092L19.853 61.074L20.5069 61.0849C21.0675 61.1065 21.1298 61.1389 21.0675 61.3228C21.0052 61.4958 20.8495 61.5391 20.3824 61.5391C20.0554 61.5391 19.744 61.5824 19.6973 61.6473C19.635 61.7121 19.853 61.7554 20.2267 61.7554C20.7405 61.7554 20.8651 61.7987 20.8651 61.9501C20.8651 62.307 20.5225 62.4043 19.308 62.4043C18.6384 62.4043 17.5796 62.4368 16.9256 62.4692C15.789 62.5449 15.7422 62.5557 15.6488 62.8478C15.5398 63.183 15.3218 63.3344 14.8703 63.3993C14.6211 63.4318 14.5744 63.5075 14.6056 63.7887C14.6367 63.9834 14.59 64.1348 14.4966 64.1348C14.4031 64.1348 14.3253 64.2321 14.3253 64.3619C14.3253 64.8594 14.0606 65 13.1108 65C12.2544 65 11.0554 64.7188 10.8374 64.4809C10.7907 64.416 10.7907 64.0915 10.8374 63.7671C10.9152 63.3128 11.0087 63.1506 11.2422 63.0965C11.5069 63.0424 11.5069 63.0208 11.1332 62.8153C10.6038 62.5341 10.635 62.2097 11.2734 60.609C12.0986 58.5865 15.1038 49.8045 15.3063 48.8744C15.4931 47.9443 15.353 47.4035 14.7924 46.906C14.263 46.4409 12.7059 45.9759 11.2111 45.8569C9.1713 45.673 9.18687 45.6839 9.18687 45.3161C9.18687 45.0241 9.23359 44.9917 9.71629 44.9917C10.3703 44.9917 10.7751 44.8943 10.6505 44.7646C10.6038 44.7105 10.4014 44.6672 10.1834 44.6672C9.98099 44.6672 9.80971 44.6131 9.80971 44.5591C9.80971 44.4942 9.70071 44.4509 9.57615 44.4509C9.45158 44.4509 9.34258 44.505 9.34258 44.5699C9.34258 44.6348 9.04674 44.6672 8.59518 44.6456L7.86334 44.6131L7.81663 43.2288L7.76992 41.8552L8.17476 41.7471C8.78203 41.5849 9.34258 41.6173 9.34258 41.8012C9.34258 41.8877 9.40487 41.9634 9.48272 41.9634C9.56058 41.9634 9.654 41.8877 9.71629 41.8012C9.79414 41.6606 10.3703 41.6389 13.609 41.6389L17.4239 41.6389L17.4706 41.282C17.5173 40.9792 17.5796 40.9251 18.0623 40.8819C18.4204 40.8494 18.6229 40.7629 18.654 40.6331C18.6851 40.5358 18.6384 40.4493 18.545 40.4493C18.4516 40.4493 18.3737 40.4925 18.3737 40.5574C18.3737 40.6223 17.9533 40.6656 17.4395 40.6656L16.5052 40.6656L16.5052 40.287C16.5052 39.7895 16.0848 39.7571 16.0069 40.2546L15.9602 40.6115L14.4654 40.6439C13.3132 40.6656 12.9239 40.6331 12.7838 40.5141C12.6592 40.4168 12.6125 39.9301 12.6436 38.9784L12.6903 37.5832L14.4031 37.5832C16.0537 37.5832 16.1159 37.594 16.1627 37.8211C16.2405 38.1672 16.4741 38.1348 16.5364 37.7671C16.5831 37.5075 16.6454 37.475 17.2682 37.4426C17.6575 37.421 18.1402 37.475 18.3582 37.5508C18.654 37.6589 18.7474 37.6589 18.7941 37.5508C18.8564 37.4534 19.4793 37.421 21.2699 37.421C23.9325 37.421 24.5398 37.3236 25.0069 36.8153C25.6454 36.1448 25.1315 34.7171 24.0883 34.2845C23.5433 34.0466 22.7336 34.0033 22.2509 34.1764C21.846 34.3278 21.4879 34.8469 21.4879 35.2904C21.4879 35.9393 20.8184 36.1123 20.2422 35.604C19.962 35.3661 19.9152 35.2146 19.9775 34.8037C20.1488 33.8735 20.5692 33.4734 21.9239 32.9975C22.5779 32.7704 23.7301 32.4243 24.4931 32.2296L25.8478 31.8727L26.2059 32.089C26.3928 32.2188 26.6886 32.3378 26.8599 32.3594C27.0779 32.381 27.4204 32.7271 27.9966 33.5491C28.5415 34.3062 28.8997 34.6847 29.0398 34.6522C29.18 34.609 29.1177 34.4468 28.7907 34.025C28.5415 33.7221 28.1834 33.1922 27.9654 32.8569L27.5917 32.2621L29.4758 31.6889C30.5191 31.3752 31.4689 31.094 31.5623 31.0724C31.6869 31.0399 32.0606 31.4401 32.5433 32.1215ZM29.2578 45.619C29.3045 48.1065 29.5692 50.6265 29.8339 51.005C30.0986 51.3835 30.5035 51.6755 31.2197 51.9784C31.6402 52.1514 31.6246 52.1298 31.0796 51.7512C30.0052 51.005 29.9896 50.9617 29.9429 47.1007C29.9274 45.1972 29.8962 43.6181 29.8962 43.5965C29.8962 43.5749 29.7405 43.6938 29.5692 43.8561C29.2578 44.1265 29.2267 44.2562 29.2578 45.619Z"
      fill="#B7C2E1" />
    <path
      d="M40.4221 35.5501C40.5778 35.7124 40.718 35.8638 40.718 35.8854C40.7335 35.8962 41.481 36.0044 42.3685 36.1234C44.6574 36.4262 44.6419 36.4154 44.7353 36.6858C44.9377 37.1941 44.7197 37.3996 43.8633 37.5293C43.4117 37.5942 42.8045 37.6916 42.5086 37.7457L41.9481 37.8538L41.9792 39.0651C41.9948 39.7357 41.9481 40.3413 41.8858 40.3954C41.7924 40.4711 42.2128 40.5793 43.147 40.7091C44.3616 40.8821 44.5484 40.9362 44.6263 41.1525C44.8598 41.8122 44.3927 42.0069 42.0726 42.2016C40.718 42.3205 40.5934 42.353 40.391 42.6342C40.1886 42.9046 40.0796 42.937 39.3944 42.937L38.6315 42.937L38.3045 42.1908C37.7595 40.9145 37.6505 40.2332 37.7128 38.665C37.7751 37.3455 37.8374 37.0318 38.2422 36.2315L38.6938 35.3122L39.4256 35.2798C40.0796 35.2473 40.1886 35.2798 40.4221 35.5501Z"
      fill="#B7C2E1" />
  </g>
  <defs>
    <clipPath id="clip0_2320_1919">
      <rect width="45" height="65" fill="white" transform="matrix(-1 1.02662e-07 7.4446e-08 1 45 0)" />
    </clipPath>
  </defs>
</svg>